<svg xmlns="http://www.w3.org/2000/svg" width="31.969" height="30" viewBox="0 0 31.969 30">
  <defs>
    <style>
      .cls-1 {
        fill: #3a3a3a;
        fill-rule: evenodd;
      }
    </style>
  </defs>
  <path id="icon2" class="cls-1" d="M425.97,4161.06a0.551,0.551,0,0,0-.512-0.36h-5.165v-16.16a0.54,0.54,0,0,0-.542-0.54h-19.5a0.54,0.54,0,0,0-.542.54v16.16h-5.165a0.55,0.55,0,0,0-.512.36,0.535,0.535,0,0,0,.174.6l15.458,12.22a0.536,0.536,0,0,0,.676,0l15.458-12.22A0.535,0.535,0,0,0,425.97,4161.06ZM410,4172.77l-13.908-10.99h4.157a0.539,0.539,0,0,0,.542-0.54v-16.16h18.418v16.16a0.539,0.539,0,0,0,.542.54h4.157Zm-4.731-17.36h1.974a0.535,0.535,0,1,0,0-1.07h-1.432v-3.39a0.542,0.542,0,0,0-1.084,0v3.92A0.539,0.539,0,0,0,405.269,4155.41Zm9.619-.02a0.543,0.543,0,0,0,.385-0.52v-3.92a0.542,0.542,0,0,0-1.084,0v2.14l-0.317-.47a0.533,0.533,0,0,0-.9,0l-0.318.47v-2.14a0.542,0.542,0,0,0-1.084,0v3.92a0.542,0.542,0,0,0,.994.3l0.859-1.28,0.86,1.28a0.549,0.549,0,0,0,.451.24A0.844,0.844,0,0,0,414.888,4155.39Zm-5.433-4.97a1.523,1.523,0,0,0-1.53,1.51v1.96a1.53,1.53,0,0,0,3.059,0v-1.96A1.523,1.523,0,0,0,409.455,4150.42Zm0.445,3.47a0.446,0.446,0,1,1-.891,0v-1.96a0.446,0.446,0,0,1,.891,0v1.96Zm7.322,5a0.54,0.54,0,1,0,0-1.08h-1.975a0.539,0.539,0,0,0-.541.54v3.92a0.539,0.539,0,0,0,.541.54h1.975a0.54,0.54,0,1,0,0-1.08h-1.433v-0.88h0.572a0.54,0.54,0,1,0,0-1.08h-0.572v-0.88h1.433Zm-7.075-1.08a0.54,0.54,0,0,0-.542.54v3.92a0.542,0.542,0,0,0,1.084,0v-3.92A0.539,0.539,0,0,0,410.147,4157.81Zm3.518,1.08a0.54,0.54,0,1,0,0-1.08,2.5,2.5,0,1,0,0,5,0.54,0.54,0,1,0,0-1.08A1.42,1.42,0,1,1,413.665,4158.89Zm-9.9-1.08h-0.987a0.54,0.54,0,0,0-.542.54v3.92a0.542,0.542,0,0,0,1.084,0v-1.42h0.445A1.52,1.52,0,1,0,403.765,4157.81Zm0,1.96H403.32v-0.88h0.445A0.44,0.44,0,1,1,403.765,4159.77Zm3.781,1.04a1.515,1.515,0,0,0-.313-3h-0.987a0.54,0.54,0,0,0-.542.54v3.92a0.542,0.542,0,0,0,1.084,0v-0.69l1.107,1.07a0.54,0.54,0,1,0,.756-0.77Zm-0.758-1.04v-0.88h0.445a0.44,0.44,0,1,1,0,.88h-0.445Z" transform="translate(-394.031 -4144)"/>
</svg>
