<svg xmlns="http://www.w3.org/2000/svg" width="32" height="32" viewBox="0 0 32 32">
  <defs>
    <style>
      .cls-1 {
        fill: #3a3a3a;
        fill-rule: evenodd;
      }
    </style>
  </defs>
  <path id="icon3" class="cls-1" d="M426,4247.66v-10.34a4.326,4.326,0,0,0-4.321-4.32H411.34a0.65,0.65,0,0,0-.471.2l-2.021,2.02c-0.346-.03-0.695-0.06-1.046-0.07-4.447-.22-8.241.56-9.667,1.97a2,2,0,0,0-.656,1.52c0.056,1.36,1.69,2.59,4.52,3.43l-6.738,6.73a4.331,4.331,0,0,0,0,6.11l8.754,8.76h-0.682a0.659,0.659,0,0,0-.666.66,0.668,0.668,0,0,0,.666.67h13.334a0.668,0.668,0,0,0,.666-0.67,0.659,0.659,0,0,0-.666-0.66h-6.4l15.536-15.54A0.649,0.649,0,0,0,426,4247.66Zm-27.189-9.08a0.654,0.654,0,0,1,.264-0.51c0.919-.91,3.971-1.8,8.516-1.6l-4.506,4.51C399.993,4240.2,398.833,4239.12,398.811,4238.58Zm10.443,24.22a3,3,0,0,1-4.224,0l-8.826-8.83a2.991,2.991,0,0,1,0-4.22l13.143-13.15a20.8,20.8,0,0,1,5.128,1.13,6.871,6.871,0,0,1,1.973,1.05,2.657,2.657,0,0,0-.709,2.48,0.2,0.2,0,0,0,.012.05,0.038,0.038,0,0,0,0,.02v0.01a2.667,2.667,0,1,0,2.581-3.34,2.584,2.584,0,0,0-.685.09,7.267,7.267,0,0,0-2.7-1.61,21.169,21.169,0,0,0-4.405-1.07l1.074-1.08h10.063a2.991,2.991,0,0,1,2.987,2.99v10.06Zm9.078-23.27a1.935,1.935,0,0,0-.02-0.2h0.025a1.335,1.335,0,1,1-1.1,2.08A2.179,2.179,0,0,0,418.332,4239.53Zm4.259-.9a0.672,0.672,0,0,0-.437.84,4,4,0,1,1-7.817,1.19,0.667,0.667,0,0,0-1.334,0,5.334,5.334,0,1,0,10.423-1.59A0.669,0.669,0,0,0,422.591,4238.63Zm-0.888-.53a0.642,0.642,0,0,0,.461-0.19,0.663,0.663,0,0,0,.019-0.94c-0.109-.11-0.224-0.22-0.342-0.33a0.668,0.668,0,0,0-.875,1.01c0.088,0.08.174,0.16,0.256,0.24A0.655,0.655,0,0,0,421.7,4238.1Zm-8.252,15.4a5.054,5.054,0,0,0,.326-0.53,3.413,3.413,0,0,0-.28-3.59,2.867,2.867,0,0,0-2.876-1.15,7.63,7.63,0,0,0-2.276,1c-0.168.09-.326,0.18-0.485,0.27a2.265,2.265,0,0,1-2.493.1,1.641,1.641,0,0,1-.43-1.8,2.089,2.089,0,0,1,.315-0.62l1.1,1.11a0.68,0.68,0,0,0,.943,0,0.676,0.676,0,0,0,0-.95l-1.064-1.06a4.887,4.887,0,0,1,1.532-.68,0.669,0.669,0,0,0-.318-1.3,6.581,6.581,0,0,0-2.176,1.02l-0.509-.51a0.666,0.666,0,0,0-.943.94l0.479,0.48a3.439,3.439,0,0,0-.643,1.2,2.965,2.965,0,0,0,.876,3.21,3.517,3.517,0,0,0,3.966.03l0.154-.09,2.948,2.95a2.268,2.268,0,0,1-1.821.61,0.666,0.666,0,1,0-.4,1.27,2.317,2.317,0,0,0,.694.1,4.06,4.06,0,0,0,2.473-1.03l0.7,0.7a0.666,0.666,0,0,0,.943-0.94Zm-0.856-1.15c-0.033.06-.068,0.13-0.105,0.19l-2.621-2.62a3.816,3.816,0,0,1,1-.38,1.545,1.545,0,0,1,1.555.64A2.06,2.06,0,0,1,412.6,4252.35Zm-10.062,3.38a0.669,0.669,0,0,0-.943.95l0.272,0.27a0.666,0.666,0,0,0,.943-0.94Zm6.023,3.2-1.414,1.41-2.828-2.83a0.669,0.669,0,0,0-.943.95l2.828,2.83a1.335,1.335,0,0,0,1.886,0l1.414-1.42A0.666,0.666,0,1,0,408.556,4258.93Z" transform="translate(-394 -4233)"/>
</svg>
