<svg xmlns="http://www.w3.org/2000/svg" width="27" height="32" viewBox="0 0 27 32">
  <defs>
    <style>
      .cls-1 {
        fill: #3a3a3a;
        fill-rule: evenodd;
      }
    </style>
  </defs>
  <path id="icon1" class="cls-1" d="M422.934,4079.63l-4.648-8.22a1.308,1.308,0,0,0,.722-1.29l-0.345-2.91,1.978-2.09a1.3,1.3,0,0,0,.032-1.73l-1.979-2.15,0.408-2.94a1.3,1.3,0,0,0-1-1.39l-2.858-.57-1.382-2.56a1.234,1.234,0,0,0-1.6-.6h-0.032l-2.638,1.23-2.575-1.26a1.234,1.234,0,0,0-.942-0.1,1.275,1.275,0,0,0-.722.6l-1.413,2.56-2.858.51a1.286,1.286,0,0,0-1.036,1.42l0.345,2.91-1.978,2.08a1.311,1.311,0,0,0-.032,1.74l1.979,2.15-0.409,2.94a1.313,1.313,0,0,0,.817,1.33l-4.679,8.34a0.643,0.643,0,0,0,0,.63,0.649,0.649,0,0,0,.534.32h5.024l2.293,4.01a0.649,0.649,0,0,0,.534.32,0.609,0.609,0,0,0,.533-0.32l4.491-7.71,4.491,7.8a0.649,0.649,0,0,0,.534.32,0.609,0.609,0,0,0,.533-0.32l2.293-4.1h5.024a0.61,0.61,0,0,0,.534-0.32A0.524,0.524,0,0,0,422.934,4079.63Zm-18.434,3.38-1.947-3.38a0.651,0.651,0,0,0-.534-0.32h-4.334l4.334-7.71,1.79,0.32,1.382,2.56a1.234,1.234,0,0,0,1.6.6h0.032l1.287-.6,0.628,1.1Zm1.821-9.07H406.29l-1.382-2.62a1.156,1.156,0,0,0-.879-0.6l-2.889-.54,0.408-2.91a1.226,1.226,0,0,0-.314-1.04l-1.947-2.15,1.978-2.08a1.209,1.209,0,0,0,.346-1.05l-0.346-2.87a0.125,0.125,0,0,1,.032-0.07l2.858-.5a1.314,1.314,0,0,0,.879-0.63l1.413-2.56,2.575,1.26a1.191,1.191,0,0,0,1.13,0l2.607-1.2h0.031l1.382,2.62a1.161,1.161,0,0,0,.848.6l2.858,0.57-0.409,2.91a1.227,1.227,0,0,0,.315,1.04l1.978,2.15-2.01,2.09a1.179,1.179,0,0,0-.345,1.04l0.345,2.91-2.826.47a1.25,1.25,0,0,0-.879.63l-1.414,2.56-2.575-1.26a1.191,1.191,0,0,0-1.13,0ZM417,4079.31a0.609,0.609,0,0,0-.533.32l-1.947,3.47-4.428-7.71a0.588,0.588,0,0,0-.126-0.22l-0.691-1.23,0.22-.09,2.575,1.26a1.3,1.3,0,0,0,.565.13,1.248,1.248,0,0,0,1.1-.64l1.413-2.56,1.884-.34,4.3,7.61H417Zm-1.224-15.17a6.281,6.281,0,1,0-6.281,6.32A6.323,6.323,0,0,0,415.774,4064.14Zm-6.281,5.06a5.055,5.055,0,1,1,5.025-5.06A5.059,5.059,0,0,1,409.493,4069.2Z" transform="translate(-396.031 -4053)"/>
</svg>
