<svg xmlns="http://www.w3.org/2000/svg" width="32" height="32" viewBox="0 0 32 32">
  <defs>
    <style>
      .cls-1 {
        fill: #3a3a3a;
        fill-rule: evenodd;
      }
    </style>
  </defs>
  <path id="icon1" class="cls-1" d="M1025.47,4053H994.533a0.5,0.5,0,0,0-.533.53v30.94a0.5,0.5,0,0,0,.533.53h30.937a0.5,0.5,0,0,0,.53-0.53v-30.94A0.5,0.5,0,0,0,1025.47,4053Zm-0.54,30.93H995.067v-29.86h29.863v29.86Zm-26.13-3.73h3.2a0.5,0.5,0,0,0,.53-0.53V4062.6a0.772,0.772,0,0,0-.1-0.37l-1.55-4.06a0.54,0.54,0,0,0-.48-0.32,0.473,0.473,0,0,0-.48.32l-1.547,4.06a0.739,0.739,0,0,0-.106.37v17.07A0.5,0.5,0,0,0,998.8,4080.2Zm2.67-4.27h-0.54v-12.8h0.54v12.8Zm-1.12-16.1,0.85,2.24h-1.653Zm-1.017,3.3h0.534v12.8h-0.534v-12.8Zm0,13.87h2.137v2.13h-2.137V4077Zm3.737-19.2h19.2v1.07h-19.2v-1.07Zm1.06,21.33h18.14v1.07h-18.14v-1.07Zm5.87-7.52v3.79a0.5,0.5,0,0,0,.53.53h8.54a0.5,0.5,0,0,0,.53-0.53v-8.53a0.507,0.507,0,0,0-.53-0.54h-3.79a4.79,4.79,0,0,0-9.55.54A4.713,4.713,0,0,0,1010,4071.61Zm8.53-4.21v7.47h-7.46v-3.26a4.7,4.7,0,0,0,4.21-4.21h3.25Zm-7.46,3.15v-3.15h3.14A3.63,3.63,0,0,1,1011.07,4070.55Zm-0.54-7.42a3.689,3.689,0,0,1,3.68,3.2h-3.68a0.507,0.507,0,0,0-.53.54v3.68A3.729,3.729,0,0,1,1010.53,4063.13Zm1.6,9.6h1.07v1.07h-1.07v-1.07Zm2.14,0h1.06v1.07h-1.06v-1.07Zm2.13,0h1.07v1.07h-1.07v-1.07Zm0-2.13h1.07v1.07h-1.07v-1.07Zm0-2.13h1.07v1.06h-1.07v-1.06Zm-12.8-8.54h1.07V4061h-1.07v-1.07Zm2.13,0h1.07V4061h-1.07v-1.07Zm2.14,0h1.06V4061h-1.06v-1.07Zm2.13,0h1.07V4061H1010v-1.07Zm2.13,0h1.07V4061h-1.07v-1.07Zm2.14,0h1.06V4061h-1.06v-1.07Zm2.13,0h1.07V4061h-1.07v-1.07Zm2.13,0h1.07V4061h-1.07v-1.07Zm2.14,0h1.06V4061h-1.06v-1.07ZM1005.73,4077h1.07v1.07h-1.07V4077Zm2.14,0h1.06v1.07h-1.06V4077Zm2.13,0h1.07v1.07H1010V4077Zm2.13,0h1.07v1.07h-1.07V4077Zm2.14,0h1.06v1.07h-1.06V4077Zm2.13,0h1.07v1.07h-1.07V4077Zm2.13,0h1.07v1.07h-1.07V4077Zm2.14,0h1.06v1.07h-1.06V4077Zm-16.54-4.8h3.2v1.07h-3.2v-1.07Zm0,2.13h3.2v1.07h-3.2v-1.07Zm14.4-12.26h3.2v1.06h-3.2v-1.06Zm0,2.13h3.2v1.07h-3.2v-1.07Z" transform="translate(-994 -4053)"/>
</svg>
