<svg xmlns="http://www.w3.org/2000/svg" width="22" height="32" viewBox="0 0 22 32">
  <defs>
    <style>
      .cls-1 {
        fill: #3a3a3a;
        fill-rule: evenodd;
      }
    </style>
  </defs>
  <path id="icon3" class="cls-1" d="M1004.39,4245.98a5.608,5.608,0,0,0-.02,2.48c0,0.02.01,0.03,0.01,0.05a0.875,0.875,0,0,0,.87.77,0.89,0.89,0,0,0,.88-0.81c0-.02-0.01-0.05-0.01-0.07a0.648,0.648,0,0,0-.02-0.2,4.013,4.013,0,0,1,.07-2.12,0.675,0.675,0,0,1,.84-0.44,0.659,0.659,0,0,1,.43.83,2.737,2.737,0,0,0-.05,1.42,2.761,2.761,0,0,1,.06.4,0.41,0.41,0,0,1,.01.11,2.206,2.206,0,0,1-4.39.31,6.884,6.884,0,0,1,.02-3.03,0.667,0.667,0,0,1,.8-0.5A0.674,0.674,0,0,1,1004.39,4245.98Zm9.8,13.99a0.665,0.665,0,0,0-.76.55,0.651,0.651,0,0,0,.54.76c2.05,0.35,2.83.82,3.01,1.02a4.541,4.541,0,0,1-2.21.87,26.586,26.586,0,0,1-5.39.5,24.528,24.528,0,0,1-5.98-.65,3.527,3.527,0,0,1-1.61-.72c0.18-.2.96-0.67,3.01-1.02a0.658,0.658,0,0,0,.54-0.76,0.665,0.665,0,0,0-.76-0.55c-2.75.47-4.14,1.25-4.14,2.33,0,0.87.85,1.52,2.61,2a25.338,25.338,0,0,0,6.33.7,26.778,26.778,0,0,0,6.02-.61c1.97-.49,2.93-1.17,2.93-2.09C1018.33,4261.22,1016.94,4260.44,1014.19,4259.97Zm-2.6.33v0.11a2.205,2.205,0,1,1-4.41,0v-0.11A2.205,2.205,0,1,1,1011.59,4260.3Zm-1.33,0a0.875,0.875,0,1,0-1.75,0v0.11a0.875,0.875,0,1,0,1.75,0v-0.11Zm1.99-11.58a2.646,2.646,0,0,1-1.62,1.15h-0.01a4.588,4.588,0,0,0-2.83,2.05,4.5,4.5,0,0,0-.55,3.45,2.2,2.2,0,0,0,2.65,1.64,2.13,2.13,0,0,0,1.37-.99,2.156,2.156,0,0,0,.27-1.66,0.172,0.172,0,0,1,.02-0.13,0.168,0.168,0,0,1,.09-0.07,0.02,0.02,0,0,0,.02-0.01,7.03,7.03,0,0,0,4.34-3.11c0.01-.02.03-0.04,0.04-0.06a7.032,7.032,0,0,0,.86-5.3,0.656,0.656,0,0,0-.79-0.5,0.667,0.667,0,0,0-.5.8,5.7,5.7,0,0,1-.67,4.25c-0.01.02-.02,0.03-0.03,0.05a5.718,5.718,0,0,1-3.57,2.58l-0.01.01a1.495,1.495,0,0,0-1.09,1.79,0.923,0.923,0,0,1-.11.67,0.83,0.83,0,0,1-.54.39,0.883,0.883,0,0,1-1.06-.65,3.243,3.243,0,0,1,.39-2.45,3.209,3.209,0,0,1,2.01-1.45h0a3.989,3.989,0,0,0,2.48-1.8l0.01-.01,0.03-.06a3.955,3.955,0,0,0,.45-2.95v-0.04c-0.02-.07-0.04-0.15-0.07-0.23a0.664,0.664,0,1,0-1.27.39,0.936,0.936,0,0,1,.04.16l0.01,0.03a2.688,2.688,0,0,1-.33,2.01A0.219,0.219,0,0,0,1012.25,4248.72Zm8.75-7.51c0,1.1-1.18,1.98-3.52,2.6a34.12,34.12,0,0,1-14.96,0c-2.34-.62-3.52-1.5-3.52-2.6,0-.99.983-1.81,2.92-2.42l0.74-4.3c0.12-.65.63-1.43,2.44-1.45a19.207,19.207,0,0,1,3.24.35,14.171,14.171,0,0,0,1.66.22,12.989,12.989,0,0,0,1.84-.25c1.78-.31,3.79-0.66,4.84.08a1.617,1.617,0,0,1,.66,1.05l0.74,4.3C1020.02,4239.4,1021,4240.22,1021,4241.21Zm-1.33,0c0-.11-0.32-0.59-1.81-1.09a29.306,29.306,0,0,1-7.86.94,34.093,34.093,0,0,1-5.32-.39,0.65,0.65,0,0,1-.55-0.75,0.665,0.665,0,0,1,.76-0.56,33.9,33.9,0,0,0,5.11.37,30.349,30.349,0,0,0,6.77-.69l-0.74-4.33a0.3,0.3,0,0,0-.12-0.19c-0.6-.42-2.55-0.08-3.84.15a14.355,14.355,0,0,1-2.07.27,13.321,13.321,0,0,1-1.88-.24,19.137,19.137,0,0,0-2.91-.34,0.277,0.277,0,0,0-.09.01,1.451,1.451,0,0,0-1.15.34l-0.81,4.72a0.644,0.644,0,0,1-.47.52c-1.96.55-2.36,1.14-2.36,1.27s0.43,0.74,2.53,1.31a33.069,33.069,0,0,0,14.28,0C1019.24,4241.96,1019.67,4241.35,1019.67,4241.21Z" transform="translate(-999 -4233)"/>
</svg>
