<svg xmlns="http://www.w3.org/2000/svg" width="32" height="32" viewBox="0 0 32 32">
  <defs>
    <style>
      .cls-1 {
        fill: #3a3a3a;
        fill-rule: evenodd;
      }
    </style>
  </defs>
  <path id="icon2" class="cls-1" d="M1018.26,4161.58v-6.71a1.558,1.558,0,0,0-1.55-1.55h-2.58v-0.51a1.551,1.551,0,0,0-1.55-1.55,1.616,1.616,0,0,0-.58.11,1.537,1.537,0,0,0-2.97,0,1.575,1.575,0,0,0-.58-0.11,1.5,1.5,0,0,0-1.03.4,1.523,1.523,0,0,0-1.03-.4,1.545,1.545,0,0,0-1.55,1.55v0.51h-1.55a1.558,1.558,0,0,0-1.55,1.55v6.71a1.558,1.558,0,0,0,1.55,1.55h1.03v0.84a3.585,3.585,0,0,0,.37,1.57l1.18,2.36v7.1h1.03v-7.35l-1.28-2.57a2.524,2.524,0,0,1-.27-1.11v-0.84h7.67l0.39-2.36a0.881,0.881,0,0,1,1.75.14v3.24a2.49,2.49,0,0,1-.54,1.54l-1.52,1.9V4175h1.03v-7.04l1.3-1.63a3.523,3.523,0,0,0,.76-2.18v-1.02h0.52A1.558,1.558,0,0,0,1018.26,4161.58Zm-6.2-8.77a0.523,0.523,0,0,1,.52-0.52,0.516,0.516,0,0,1,.52.52v0.51h-1.04v-0.51Zm-2.06,0v-1.04a0.515,0.515,0,0,1,1.03,0v1.55H1010v-0.51Zm-2.06,0a0.515,0.515,0,1,1,1.03,0v0.51h-1.03v-0.51Zm-2.07,0a0.515,0.515,0,1,1,1.03,0v0.51h-1.03v-0.51Zm11.36,8.77a0.523,0.523,0,0,1-.52.52h-0.52v-1.19a1.913,1.913,0,0,0-3.8-.31l-0.25,1.5h-8.85a0.523,0.523,0,0,1-.52-0.52v-5.16h14.46v5.16Zm0-6.19h-14.46v-0.52a0.529,0.529,0,0,1,.52-0.52h13.42a0.529,0.529,0,0,1,.52.52v0.52Zm-11.88,6.19a1.957,1.957,0,0,1,1.55,0A2.939,2.939,0,1,0,1005.35,4161.58Zm0-3.1a1.006,1.006,0,0,1,.52.15l0.26,0.15,0.26-.15a0.972,0.972,0,0,1,.51-0.15,1.035,1.035,0,1,1,0,2.07,0.972,0.972,0,0,1-.51-0.15l-0.26-.15-0.26.15a1.006,1.006,0,0,1-.52.15A1.035,1.035,0,0,1,1005.35,4158.48Zm4.65-10.32a2.58,2.58,0,1,0-2.58-2.58A2.586,2.586,0,0,0,1010,4148.16Zm0-4.13a1.55,1.55,0,1,1-1.55,1.55A1.558,1.558,0,0,1,1010,4144.03Zm-9.49,8.06a2.561,2.561,0,0,0,2.58-2.58A2.584,2.584,0,1,0,1000.51,4152.09Zm-1.094-3.67a1.517,1.517,0,0,1,1.094-.46,1.556,1.556,0,0,1,1.1,2.65,1.6,1.6,0,0,1-2.194,0,1.553,1.553,0,0,1-.453-1.1A1.53,1.53,0,0,1,999.416,4148.42ZM999.161,4159a2.581,2.581,0,1,0-2.58,2.58A2.584,2.584,0,0,0,999.161,4159Zm-2.58,1.55a1.55,1.55,0,1,1,1.548-1.55A1.554,1.554,0,0,1,996.581,4160.55Zm3.929,5.36a2.571,2.571,0,0,0-2.58,2.58,2.588,2.588,0,0,0,2.58,2.58,2.578,2.578,0,0,0,2.58-2.58A2.561,2.561,0,0,0,1000.51,4165.91Zm1.1,3.67a1.581,1.581,0,0,1-2.194,0,1.53,1.53,0,0,1-.453-1.09,1.571,1.571,0,0,1,.453-1.1,1.549,1.549,0,0,1,1.094-.45,1.537,1.537,0,0,1,1.55,1.55A1.536,1.536,0,0,1,1001.61,4169.58Zm17.88-3.67a2.561,2.561,0,0,0-2.58,2.58,2.578,2.578,0,0,0,2.58,2.58,2.595,2.595,0,0,0,2.58-2.58A2.578,2.578,0,0,0,1019.49,4165.91Zm1.09,3.67a1.576,1.576,0,0,1-2.19,0,1.536,1.536,0,0,1-.45-1.09,1.537,1.537,0,0,1,1.55-1.55,1.553,1.553,0,0,1,1.55,1.55A1.5,1.5,0,0,1,1020.58,4169.58Zm2.84-13.16A2.58,2.58,0,1,0,1026,4159,2.586,2.586,0,0,0,1023.42,4156.42Zm0,4.13a1.55,1.55,0,1,1,1.55-1.55A1.558,1.558,0,0,1,1023.42,4160.55Zm-3.93-8.46a2.578,2.578,0,0,0,2.58-2.58,2.595,2.595,0,0,0-2.58-2.58,2.578,2.578,0,0,0-2.58,2.58A2.561,2.561,0,0,0,1019.49,4152.09Zm-1.1-3.67a1.544,1.544,0,0,1,1.1-.46,1.571,1.571,0,0,1,1.55,1.55,1.527,1.527,0,0,1-.46,1.1,1.6,1.6,0,0,1-2.19,0,1.559,1.559,0,0,1-.45-1.1A1.536,1.536,0,0,1,1018.39,4148.42Zm-12.75-1.75,0.46,0.92-1.03.52-0.46-.93Zm-7.442,6.69,0.978,0.33-0.365,1.09-0.979-.32Zm0.393,9.54,0.516,1.03-0.923.46-0.517-1.03Zm23.209,1.73-0.97-.32,0.36-1.1,0.98,0.33Zm-0.39-9.53-0.52-1.03,0.93-.46,0.51,1.03Zm-6.87-8.27,1.1,0.36-0.33.98-1.09-.36Z" transform="translate(-994 -4143)"/>
</svg>
