<?xml version="1.0" encoding="utf-8"?>
<!-- Generator: Adobe Illustrator 19.0.0, SVG Export Plug-In . SVG Version: 6.00 Build 0)  -->
<svg version="1.1" id="Layer_1" xmlns="http://www.w3.org/2000/svg" xmlns:xlink="http://www.w3.org/1999/xlink" x="0px" y="0px"
	 viewBox="0 0 573.3 77.3" style="enable-background:new 0 0 573.3 77.3;" xml:space="preserve">
<style type="text/css">
	.st0{fill:#FFFFFF;}
	.st1{fill:#881A51;}
</style>
<g>
	<path class="st0" d="M26.9,12.4c-7,0-12.7,2.8-17.5,8.6v-6.5l-1.1-1.1H1.1L0,14.5v61.6l1.1,1.1h7.2l1.1-1.1V57
		c4.7,5.4,10.5,8.2,17.5,8.2c11.8,0,24.3-9.2,24.3-26.3C51.2,21.7,38.7,12.4,26.9,12.4 M41.6,38.8c0,10.6-6.4,17.8-16,17.8
		c-8.1,0-16.5-6.6-16.5-17.7c0-11.1,8.4-17.8,16.5-17.8C34.9,21.1,41.6,28.5,41.6,38.8"/>
	<path class="st0" d="M97.2,13.4l-1.1,1.1v27.8c0,8.3-5.5,14.1-13.5,14.1c-7.8,0-12.3-4.9-12.3-13.6V14.5l-1.1-1.1H62l-1.1,1.1v30.1
		c0,12.5,7.7,20.5,19.7,20.5c6.5,0,11.6-2.3,15.5-7.2v5.1l1.1,1.1h7.1l1.1-1.1V14.5l-1.1-1.1H97.2z"/>
	<path class="st0" d="M307.8,13.4l-1.1,1.1v27.8c0,8.3-5.5,14.1-13.5,14.1c-7.8,0-12.3-4.9-12.3-13.6V14.5l-1.1-1.1h-7.2l-1.1,1.1
		v30.1c0,12.5,7.7,20.5,19.7,20.5c6.5,0,11.6-2.3,15.5-7.2v5.1l1.1,1.1h7.1l1.1-1.1V14.5l-1.1-1.1H307.8z"/>
	<path class="st0" d="M338.1,64.3l1.1-1.1V35.4c0-8.3,5.5-14.1,13.5-14.1c7.8,0,12.3,4.9,12.3,13.6v28.4l1.1,1.1h7.2l1.1-1.1V33
		c0-12.5-7.7-20.5-19.7-20.5c-6.5,0-11.6,2.4-15.5,7.2v-5.1l-1.1-1.1H331l-1.1,1.1v48.5l1.1,1.1H338.1z"/>
	<path class="st0" d="M129.6,22.9v-8.3l-1.1-1.1h-7.2l-1.1,1.1v48.5l1.1,1.1h7.2l1.1-1.1V43.7c0-12.9,7.1-21.2,18.2-21.2h0.6
		l1.1-1.1v-7.8l-1-1.1C140.7,12.3,134,16.1,129.6,22.9"/>
	<path class="st0" d="M239.3,12.4c-6.4,0-11.6,2.4-15.5,7.1V1.1L222.7,0h-7.2l-1.1,1.1v62l1.1,1.1h7.2l1.1-1.1V35.3
		c0-8.3,5.5-14.1,13.5-14.1c7.8,0,12.3,4.9,12.3,13.6v28.4l1.1,1.1h7.2l1.1-1.1V32.9C259,20.5,251.3,12.4,239.3,12.4"/>
	<path class="st0" d="M410.6,22l1.1-1.1v-6.4l-1.1-1.1h-14.3V1.1L395.2,0H388l-1.1,1.1v49.1c0,9.4,5.4,14.8,14.8,14.8
		c3.5,0,6.6-0.7,9.4-2.2l0.6-1v-7l-1.6-1c-2.3,1.1-4.4,1.6-6.8,1.6c-5.2,0-7.1-1.6-7.1-6.2V22H410.6z"/>
	<path class="st0" d="M178.3,12.4c-14.4,0-24.4,10.9-24.4,26.4s10.7,26.4,26,26.4c12.8,0,19.4-5.3,19.7-5.6l0.4-0.8v-7.4l-1.7-0.9
		c-0.1,0.1-7.6,5.5-17.6,5.5c-7.5,0-15.5-4.1-17.1-13.2h37.3l1.1-1c0.1-1.2,0.1-1.9,0.1-2.6C202,22.2,193.3,12.4,178.3,12.4
		 M178.1,20.7c8.5,0,13,4.5,14.3,14.2h-28.8C164.9,25.8,170.2,20.7,178.1,20.7"/>
</g>
<path class="st1" d="M546.3,12.6c16.2,0,27,11.3,27,26.4c0,15.2-10.8,26.4-27,26.4c-16.2,0-27-11.3-27-26.4
	C519.2,23.8,530,12.6,546.3,12.6z M546.3,57c10.1,0,17.4-7.2,17.4-18c0-10.6-7.3-18-17.4-18c-9.9,0-17.4,7.3-17.4,18
	C528.8,49.6,536.1,57,546.3,57z"/>
<path class="st1" d="M495,22.9v-8.3l-1.1-1.1h-7.2l-1.1,1.1v48.5l1.1,1.1h7.2l1.1-1.1V43.7c0-12.9,7.1-21.2,18.2-21.2h0.6l1.1-1.1
	v-7.8l-1-1.1C506.1,12.3,499.3,16.1,495,22.9"/>
<path class="st1" d="M451.6,12.4c-7,0-12.7,2.8-17.5,8.6v-6.5l-1.1-1.1h-7.2l-1.1,1.1v61.6l1.1,1.1h7.2l1.1-1.1V57
	c4.7,5.4,10.5,8.2,17.5,8.2c11.8,0,24.3-9.2,24.3-26.3C475.9,21.7,463.4,12.4,451.6,12.4 M466.3,38.8c0,10.6-6.4,17.8-16,17.8
	c-8.1,0-16.5-6.6-16.5-17.7c0-11.1,8.4-17.8,16.5-17.8C459.5,21.1,466.3,28.5,466.3,38.8"/>
</svg>
