<svg xmlns="http://www.w3.org/2000/svg" width="50" height="50" viewBox="0 0 50 50">
  <defs>
    <style>
      .cls-1 {
        fill: #3a3a3a;
        fill-rule: evenodd;
      }
    </style>
  </defs>
  <path id="icon2" class="cls-1" d="M984,1491.85a7.233,7.233,0,0,0-4.032-6.5v-12.67a9.678,9.678,0,1,0-19.355,0v0.95a10.053,10.053,0,0,0-3.147-.03c-0.057.01-.113,0.03-0.171,0.04a5.572,5.572,0,0,0,.092-0.96v-3.23a2.424,2.424,0,0,0-2.246-2.41,8.865,8.865,0,0,0-16.3,4.83v0.81a5.65,5.65,0,0,0,2.419,4.61v0.05a6.456,6.456,0,0,0,2.42,5.03v1.72l-3.613.6a7.242,7.242,0,0,0-6.065,7.16v6.63h14.265a7.224,7.224,0,0,0-4.587,6.75V1513h30.645v-7.77a7.225,7.225,0,0,0-4.588-6.75H984v-6.63Zm-21.774-19.17a8.065,8.065,0,1,1,16.129,0v12.1l-0.42-.09-3.612-.6v-1.73a6.423,6.423,0,0,0,2.419-5.02l-0.006-5.11-1.143.52a14.093,14.093,0,0,1-5.3.73,14.435,14.435,0,0,1-5.3-.72l-1.155-.56v2.59a9.522,9.522,0,0,0-1.613-.74v-1.37Zm5.176,5.69a9.8,9.8,0,0,0-1.95-2.41v-1.37a23.207,23.207,0,0,0,9.677,0v2.75a4.842,4.842,0,0,1-4.839,4.83,4.374,4.374,0,0,1-.806-0.07v-1.19A2.6,2.6,0,0,0,967.4,1478.37Zm1.38,9.01a8.833,8.833,0,0,0,.7-3.41v-0.24a7.266,7.266,0,0,0,.806.06,6.3,6.3,0,0,0,2.42-.48v1.33l-2.42,7.26Zm0.066,5.3-2.208-2.21a8.944,8.944,0,0,0,1.07-1.21Zm5.216-7,1.274,0.21,0.528,2.65-4.134,4.14Zm-16.353-10.48a8.084,8.084,0,0,1,8.465,4.3l0.226,0.44h0.492a0.971,0.971,0,0,1,.977.97v3.06a7.3,7.3,0,0,1-1.614,4.55l0-4.95-1.114.46a25.814,25.814,0,0,1-12.273,0l-1.124-.48v3.1A8.042,8.042,0,0,1,957.711,1475.2Zm-7.72,11.44a9.734,9.734,0,0,0,.649,1.37l-1.423-.85Zm-2.253-.43-2.448-1.84v-1.06a6.3,6.3,0,0,0,2.42.48,6.435,6.435,0,0,0,1.638-.22,9.655,9.655,0,0,0,.168,1.45Zm3.289,3.91,0.79,0.48a7.245,7.245,0,0,0,2.344,4.41v1.86h-3.32l-0.681-5.45Zm3.742,8.43,2.821,2.26-2.378,1.43-2.188-3.29Zm1-1.26v-1.19a7.143,7.143,0,0,0,6.452,0v1.19L959,1499.87Zm7.457,1.26,1.745,0.4-2.188,3.29-2.378-1.43ZM959,1495.26a5.651,5.651,0,0,1-5.645-5.65v-3.76a29.776,29.776,0,0,0,11.29,0v3.76A5.651,5.651,0,0,1,959,1495.26Zm-17.742-23.06v2.88a3.988,3.988,0,0,1-.806-2.4v-0.81a7.253,7.253,0,0,1,13.537-3.63l0.233,0.41h0.746a0.8,0.8,0,0,1,.806.8v3.23a3.949,3.949,0,0,1-.29,1.47,9.229,9.229,0,0,0-1.324.65l0-2.57-1.144.52a14.1,14.1,0,0,1-5.3.73,14.428,14.428,0,0,1-5.3-.72Zm1.613,5.14v-2.75a23.207,23.207,0,0,0,9.677,0v1.38a9.7,9.7,0,0,0-3.133,5.89,4.966,4.966,0,0,1-1.7.32A4.857,4.857,0,0,1,942.871,1477.34Zm1.4,8.29,1.99,1.49-2.312,1.39-1.542-2.57Zm0.3,11.24h-4.126v-2.42h-1.613v2.42h-3.226v-5.02a5.634,5.634,0,0,1,4.717-5.57l0.373-.06,2.7,4.5,0.992-.6,0.866,1.3Zm1.625,0,0.73-5.84-1.156-1.74,1.933-1.16,1.932,1.16-1.156,1.74,0.729,5.84H946.2Zm9.656,14.52h-5.73v-4.04h-1.613v4.04H945.29v-6.16a5.611,5.611,0,0,1,4.376-5.5l1.678-.39,3.379,5.07,0.96-.58,0.87,1.31Zm4.66,0h-3.037l0.74-6.66-1.153-1.73,1.931-1.16,1.932,1.16-1.153,1.73Zm12.191-6.16v6.16h-3.226v-4.04h-1.613v4.04h-5.73l-0.694-6.25,0.87-1.31,0.96,0.58,3.379-5.07,1.678,0.39A5.61,5.61,0,0,1,972.71,1505.23Zm9.677-8.36h-3.226v-2.42h-1.613v2.42H963.839v-1.86a7.3,7.3,0,0,0,2.02-3.04l4.431,4.43,7.328-7.33-0.579-2.89,0.631,0.1a5.634,5.634,0,0,1,4.717,5.57v5.02Z" transform="translate(-934 -1463)"/>
</svg>
