<svg xmlns="http://www.w3.org/2000/svg" width="50" height="40" viewBox="0 0 50 40">
  <defs>
    <style>
      .cls-1 {
        fill: #3a3a3a;
        fill-rule: evenodd;
      }
    </style>
  </defs>
  <path id="icon1" class="cls-1" d="M584.243,1488.92l-2.432-2.41a2.557,2.557,0,0,0-3.6,0l-13.138,13.02-1.81,6.59-0.443.44a0.84,0.84,0,0,0,0,1.19l0,0.01h0.016a0.857,0.857,0,0,0,.6.24,0.87,0.87,0,0,0,.6-0.24l0.443-.44,6.64-1.8,13.136-13.03A2.51,2.51,0,0,0,584.243,1488.92Zm-17.2,11.06,8.743-8.67,3.622,3.59-8.743,8.67Zm-0.77,1.63,2.749,2.72-3.78,1.02Zm16.765-10.31-2.423,2.4-3.622-3.59,2.424-2.4a0.839,0.839,0,0,1,1.19,0l2.432,2.41A0.831,0.831,0,0,1,583.036,1491.3Zm-23.28,9.7H538.313c3.882-3.05,12.634-9.97,17.13-13.88l1.213,1.06a4.794,4.794,0,0,0,6.2.01l19.952-17.47v13.36a0.854,0.854,0,0,0,1.707,0v-15.24a0.146,0.146,0,0,0,0-.02,0.813,0.813,0,0,0-.051-0.28s-0.007-.01-0.009-0.01a0.454,0.454,0,0,0-.035-0.07,0.664,0.664,0,0,0-.128-0.18,0.357,0.357,0,0,0-.07-0.07,1.073,1.073,0,0,0-.174-0.12,0.331,0.331,0,0,1-.083-0.04,0.981,0.981,0,0,0-.3-0.06h-47.8a0.981,0.981,0,0,0-.3.06,0.367,0.367,0,0,1-.083.04,1.073,1.073,0,0,0-.174.12,0.357,0.357,0,0,0-.07.07,0.644,0.644,0,0,0-.128.18c-0.011.03-.026,0.04-0.035,0.07,0,0-.007.01-0.01,0.01a0.862,0.862,0,0,0-.05.28,0.142,0.142,0,0,0,0,.02v33.02a0.851,0.851,0,0,0,.046.27c0,0.01.011,0.02,0.015,0.03,0.012,0.03.03,0.05,0.044,0.08a0.865,0.865,0,0,0,.116.17,0.376,0.376,0,0,0,.075.07,0.629,0.629,0,0,0,.169.11,0.367,0.367,0,0,0,.087.05,0.994,0.994,0,0,0,.3.06h23.9A0.85,0.85,0,1,0,559.756,1501Zm-23.047-.9v-29.38l17.445,15.27C549.411,1490.1,540.2,1497.37,536.709,1500.1Zm44.691-30.41-19.682,17.23a3.039,3.039,0,0,1-3.928,0l-1.689-1.48-0.012-.02c-0.018-.02-0.045-0.03-0.065-0.05l-17.913-15.68H581.4Z" transform="translate(-535 -1468)"/>
</svg>
