<svg xmlns="http://www.w3.org/2000/svg" width="47" height="50" viewBox="0 0 47 50">
  <defs>
    <style>
      .cls-1 {
        fill: #3a3a3a;
        fill-rule: evenodd;
      }
    </style>
  </defs>
  <path id="icon3" class="cls-1" d="M1348.73,1483.29a15.686,15.686,0,0,0,3.41,9.72,10.188,10.188,0,0,0,16.72.01,15.686,15.686,0,0,0,3.41-9.72v-3.14c2.3-7.28,1.45-13.43.7-15.13h-0.01a0.076,0.076,0,0,0-.02-0.05,0.035,0.035,0,0,0-.01-0.02,0.138,0.138,0,0,0-.03-0.04,19087589816.716,19087589816.716,0,0,0-.04-0.06l-0.03-.03a0.035,0.035,0,0,0-.01-0.02,0.151,0.151,0,0,1-.04-0.04,0.035,0.035,0,0,0-.02-0.01l-0.04-.04a0.031,0.031,0,0,1-.02-0.01,0.138,0.138,0,0,0-.04-0.03c-0.01,0-.01-0.01-0.02-0.01a0.142,0.142,0,0,0-.04-0.02c-0.01-.01-0.02-0.01-0.03-0.02a0.227,0.227,0,0,1-.04-0.01,0.06,0.06,0,0,0-.04-0.01c-0.01-.01-0.02-0.01-0.03-0.02h-0.04a0.06,0.06,0,0,0-.04-0.01,0.037,0.037,0,0,1-.03-0.01h-0.21a21.747,21.747,0,0,1-6.86-.7c-4.22-.84-8.59-1.71-12,0.71a0.808,0.808,0,0,0-.16-0.01c-3.49,0-5.94,2.89-5.94,7.03a59.207,59.207,0,0,0,1.55,10v1.69Zm18.91,8.75a8.64,8.64,0,0,1-14.28-.01,14.109,14.109,0,0,1-3.07-8.74v-0.89c0-2.78,1.58-6.54,2.12-7.74a35.28,35.28,0,0,1,12.41.66,22.913,22.913,0,0,1,4.47,1.53l1.41,3.35v3.1A14.1,14.1,0,0,1,1367.64,1492.04Zm-14.52-25.91a0.78,0.78,0,0,0,.22-0.03,0.815,0.815,0,0,0,.69-0.13c2.88-2.18,6.98-1.36,10.94-.56a31.775,31.775,0,0,0,5.91.81c0.28,0,.56-0.01.83-0.03a25.162,25.162,0,0,1-.37,11.49l-0.72-1.7a0.835,0.835,0,0,0-.34-0.38c-0.29-.16-7.21-3.88-18.5-2.43h-0.05a0.037,0.037,0,0,1-.03.01c-0.01,0-.02.01-0.03,0.01a0.845,0.845,0,0,0-.27.13,0.864,0.864,0,0,0-.13.14h-0.01c-0.01.01-.01,0.03-0.02,0.04s-0.01.02-.02,0.03l-0.02.02a0.106,0.106,0,0,1-.02.05h0a32.591,32.591,0,0,0-1.64,4.23,39.435,39.435,0,0,1-.79-6.23C1348.75,1467.82,1350.95,1466.13,1353.12,1466.13Zm29.38,37.3a7.578,7.578,0,0,0-4.26-3.09,0.257,0.257,0,0,0-.05-0.02l-6.25-1.3-1.68-2.54a0.138,0.138,0,0,0-.03-0.04,1.568,1.568,0,0,0-2.24-.27c-0.01,0-.01.01-0.02,0.01l-7.47,6.42-7.47-6.42c-0.01,0-.01-0.01-0.02-0.01a1.568,1.568,0,0,0-2.24.27,0.138,0.138,0,0,0-.03.04l-1.68,2.54-6.25,1.3a0.257,0.257,0,0,0-.05.02,7.578,7.578,0,0,0-4.26,3.09,8.565,8.565,0,0,0-1.5,4.8v1.94a3,3,0,0,0,3.13,2.83h40.74a3,3,0,0,0,3.13-2.83v-1.94A8.565,8.565,0,0,0,1382.5,1503.43Zm-13.52-6.05,1.53,2.32-5.4,7.41-1.71-1.69h0l-1.75-1.75Zm-9.26,11.71h1.7l0.47,2.35h-2.78l0.47-2.35h0.14Zm2.35-2.34a0.783,0.783,0,0,1-.79.78h-1.56a0.783,0.783,0,0,1-.79-0.78v-0.46l1.57-1.56,1.57,1.56v0.46h0Zm-10.05-9.37,7.33,6.29-1.75,1.75h0l-1.71,1.69-5.4-7.41Zm-13.45,12.79v-1.94a6.635,6.635,0,0,1,4.59-6.38l6.04-1.26,5.97,8.18a0.759,0.759,0,0,0,.57.32h0.06a0.747,0.747,0,0,0,.55-0.23l1.2-1.19a2.285,2.285,0,0,0,.56.78l-0.6,2.99h-17.38A1.44,1.44,0,0,1,1338.57,1510.17Zm43.86,0a1.44,1.44,0,0,1-1.56,1.27h-17.38l-0.6-2.99a2.285,2.285,0,0,0,.56-0.78l1.2,1.2a0.779,0.779,0,0,0,.55.22h0.06a0.759,0.759,0,0,0,.57-0.32l5.97-8.18,6.04,1.26a6.635,6.635,0,0,1,4.59,6.38v1.94Z" transform="translate(-1337 -1463)"/>
</svg>
